<?xml version="1.0" encoding="UTF-8"?>
<svg width="640" height="340" viewBox="0 0 640 340" xmlns="http://www.w3.org/2000/svg">
  <defs>
    <linearGradient id="g" x1="0" y1="0" x2="1" y2="1">
      <stop offset="0%" stop-color="#1e1b4b"/>
      <stop offset="100%" stop-color="#4f46e5"/>
    </linearGradient>
  </defs>
  <rect width="640" height="340" fill="url(#g)"/>
  <circle cx="80" cy="40" r="180" fill="#ffffff" opacity="0.07"/>
  <circle cx="600" cy="330" r="150" fill="#ffffff" opacity="0.07"/>
  <g>
    <rect x="196" y="96" width="248" height="168" rx="12" fill="#ffffff"/>
    <rect x="212" y="116" width="216" height="28" rx="6" fill="#e0e7ff"/>
    <g stroke="#f59e0b" stroke-width="14" stroke-linecap="round">
      <path d="M356 160 L356 236"/>
      <path d="M236 196 L356 224 L356 196 L236 224 Z"/>
    </g>
    <path d="M196 264 A120 120 0 0 1 316 264" fill="none" stroke="#c7d2fe" stroke-width="10"/>
    <path d="M196 264 A120 120 0 0 1 268 208" fill="none" stroke="#4f46e5" stroke-width="10" stroke-linecap="round"/>
    <circle cx="356" cy="236" r="10" fill="#4f46e5"/>
  </g>
  <text x="44" y="56" font-family="Arial, sans-serif" font-size="24" font-weight="bold" letter-spacing="2" fill="#c7d2fe">টেকভিউ</text>
  <text x="44" y="306" font-family="Arial, sans-serif" font-size="24" font-weight="bold" fill="#ffffff">ফ্রন্টএন্ড পারফরম্যান্স</text>
</svg>
